<svg version="1.1" xmlns="http://www.w3.org/2000/svg" width="150" height="51" style=""><path fill="#efbb35" d="M16.232,42.244l1.736,0l0-11.844q0-2.352,1.792-4.144t4.144-1.792q2.296,0,4.144,1.792q1.764,1.764,1.764,4.144l0,11.844l1.792,0l0-11.844q0-2.408,1.792-4.144q1.792-1.792,4.116-1.792q2.352,0,4.144,1.792t1.792,4.144l0,11.844l1.736,0l0-11.844q0-3.192-2.24-5.432t-5.432-2.24q-2.1,0-3.948,1.148q-1.876,1.176-2.688,2.996q-1.092-1.876-2.94-2.996q-1.932-1.148-4.032-1.148q-3.164,0-5.404,2.24q-2.268,2.268-2.268,5.432l0,11.844z M51.31152,36.924q0-1.344,0.952-2.436q0.952-1.148,2.296-1.148l0.364,0l5.236,0l0-1.736l-5.236,0l-0.364,0q-1.428-0.28-2.338-1.232t-0.91-2.268q0-1.652,0.966-2.618t2.646-0.966l9.52,0l0-1.764l-9.52,0q-2.156,0-3.752,1.596q-1.596,1.54-1.596,3.752q0,1.4,0.532,2.548t1.568,1.652q-1.036,0.756-1.568,1.988t-0.532,2.632q0,2.184,1.596,3.724q1.624,1.624,3.752,1.624l9.52,0l0-1.848l-9.52,0q-1.68,0-2.646-0.952t-0.966-2.548z M69.64704,36.924q0-1.344,0.952-2.436q0.952-1.148,2.296-1.148l0.364,0l5.236,0l0-1.736l-5.236,0l-0.364,0q-1.428-0.28-2.338-1.232t-0.91-2.268q0-1.652,0.966-2.618t2.646-0.966l9.52,0l0-1.764l-9.52,0q-2.156,0-3.752,1.596q-1.596,1.54-1.596,3.752q0,1.4,0.532,2.548t1.568,1.652q-1.036,0.756-1.568,1.988t-0.532,2.632q0,2.184,1.596,3.724q1.624,1.624,3.752,1.624l9.52,0l0-1.848l-9.52,0q-1.68,0-2.646-0.952t-0.966-2.548z M100.66656,22.7l-15.176,0l0,1.708l6.888,0l0,17.948l1.736,0l0-17.948l6.552,0l0-1.708z M119.61808,22.672l-1.764,0l0,11.956q0,2.576-1.792,4.312q-1.764,1.68-4.2,1.68q-2.66,0-4.284-1.68q-1.652-1.708-1.652-4.312l0-11.956l-1.792,0l0,11.956q0,3.192,2.184,5.432q2.212,2.296,5.544,2.296q3.108,0,5.46-2.296q2.296-2.24,2.296-5.432l0-11.956z M134.5096,22.7l-8.792,0l-1.736,0l0,19.684l1.736,0l0-9.856l8.792,0q2.128,0,3.528-1.4t1.4-3.5q0-1.904-1.4-3.388q-1.484-1.54-3.528-1.54z M134.5096,30.792l-8.792,0l0-6.356l8.792,0q1.288,0,2.268,0.924q0.924,0.98,0.924,2.268q0,1.316-0.924,2.24q-0.98,0.924-2.268,0.924z"></path><path fill="#" d=""></path></svg>